PathFileType	4	(X/Y/Z)	s09c0403.trc
DataRate	CameraRate	NumFrames	NumMarkers	Units	OrigDataRate	OrigDataStartFrame	OrigNumFrames
200	200	7	50	mm	200	250	2000
Frame#	Time	racr			lacr			c7			jug			rlel			rdr			llel			ldr			s2			lic			ric			lasi			rasi			rpsi			lpsi			rgt			lgt			rth1			rth2			rth3			rth4			rlfc			rmfc			rsh1			rsh2			rsh3			rsh4			rlmal			rmmal			rcal			rtoe			rmt5			lth1			lth2			lth4			lth3			llfc			lmfc			llmal			lmmal			lcal			lmt5			lsh1			lsh2			lsh3			lsh4			ltoe			SBIKE			LBIKE			RBIKE			
		X1	Y1	Z1	X2	Y2	Z2	X3	Y3	Z3	X4	Y4	Z4	X5	Y5	Z5	X6	Y6	Z6	X7	Y7	Z7	X8	Y8	Z8	X9	Y9	Z9	X10	Y10	Z10	X11	Y11	Z11	X12	Y12	Z12	X13	Y13	Z13	X14	Y14	Z14	X15	Y15	Z15	X16	Y16	Z16	X17	Y17	Z17	X18	Y18	Z18	X19	Y19	Z19	X20	Y20	Z20	X21	Y21	Z21	X22	Y22	Z22	X23	Y23	Z23	X24	Y24	Z24	X25	Y25	Z25	X26	Y26	Z26	X27	Y27	Z27	X28	Y28	Z28	X29	Y29	Z29	X30	Y30	Z30	X31	Y31	Z31	X32	Y32	Z32	X33	Y33	Z33	X34	Y34	Z34	X35	Y35	Z35	X36	Y36	Z36	X37	Y37	Z37	X38	Y38	Z38	X39	Y39	Z39	X40	Y40	Z40	X41	Y41	Z41	X42	Y42	Z42	X43	Y43	Z43	X44	Y44	Z44	X45	Y45	Z45	X46	Y46	Z46	X47	Y47	Z47	X48	Y48	Z48	X49	Y49	Z49	X50	Y50	Z50	
250	1.2500	616.311736	1326.935370	-79.522098	652.977373	1308.160936	-420.328864	594.434890	1368.348801	-253.781127	617.085331	1227.768962	-244.763886	539.028582	1089.972597	21.458920	689.770007	910.739689	-57.304991	536.920741	1088.310334	-559.928182	673.695517	909.817740	-454.376533	125.472673	1151.318041	-291.629755	282.593821	1105.862807	-409.803645	249.376973	1158.434258	-128.879002	308.646739	1048.312460	-373.901698	281.978683	1095.844939	-133.829416	149.933163	1188.918461	-232.720142	169.147054	1173.787956	-339.687052	204.473585	1050.771596	-64.455069	220.123353	979.908391	-441.982095	320.783467	981.987035	-54.200853	406.631612	963.073329	-55.167731	468.394612	900.077813	-48.315378	422.404175	985.793200	-79.808633	533.742307	812.805827	-71.755578	522.749252	795.100672	-171.351638	446.197681	757.480944	-49.230300	390.683459	689.958436	-69.213186	308.036037	658.976660	-73.454715	409.834497	672.612889	-99.422941	228.620424	598.580852	-80.166068	237.429427	611.890829	-156.507212	141.427360	614.475288	-119.524896	357.432292	458.703113	-131.794752	283.312137	491.118595	-64.208524	257.606067	850.264733	-437.338105	303.400804	779.723825	-424.423631	337.589245	790.830602	-411.213307	307.556811	689.962011	-413.164159	323.337452	597.899962	-396.129557	327.771239	582.042603	-300.440438	226.198707	243.848247	-409.608714	247.391144	249.860027	-343.232117	157.714437	213.234265	-373.278307	320.197839	148.486937	-432.211839	288.609759	502.908812	-423.136059	292.021400	416.408442	-416.069100	250.304114	337.892883	-415.408522	317.020714	412.708572	-384.950362	414.001654	157.592704	-363.780427	-64.652447	851.153047	-241.753160	21.136473	83.638554	-442.346353	21.268912	84.050983	-44.017116	
251	1.2550	616.191035	1329.030370	-76.571280	654.912701	1310.586112	-419.313275	595.473413	1371.740306	-252.250451	619.036459	1231.710434	-243.013994	539.370470	1090.536337	21.517494	689.573664	910.538347	-57.679309	539.785773	1090.239635	-558.467139	674.366413	909.387111	-454.133760	128.446938	1151.618416	-292.862615	286.534497	1106.262160	-409.170281	250.692786	1159.529394	-129.013130	312.016091	1049.103027	-373.074498	284.153126	1097.219663	-133.791891	152.396183	1189.658027	-234.162924	171.776868	1174.553329	-340.500888	206.217075	1051.198812	-65.227677	223.232630	980.150794	-442.196708	323.210935	983.531595	-54.655172	409.208030	965.096621	-55.430661	471.372521	902.514199	-48.524586	424.920045	987.784964	-80.009749	537.295962	815.663131	-72.032251	526.703436	797.813791	-171.662093	450.138676	759.977067	-49.471322	394.993252	692.045962	-69.440707	312.684579	660.884707	-73.570036	413.889897	674.776589	-99.953335	233.448384	599.393215	-80.349551	241.880341	612.787864	-156.988165	146.260607	614.819885	-119.451909	363.687177	460.993645	-131.780144	289.170159	492.603803	-64.344156	258.209128	850.688333	-437.407545	303.106518	779.566904	-424.651461	337.310130	789.975543	-411.448572	305.875858	689.651685	-413.426991	320.585462	597.544674	-396.282350	325.127234	581.753298	-300.440045	221.825311	244.011801	-409.528289	243.194676	249.731811	-343.218160	153.075715	214.597737	-373.338480	314.542840	147.282346	-432.117324	285.429438	502.662648	-423.253596	288.457377	416.195534	-416.114585	246.379751	337.858867	-415.416565	313.579936	412.263420	-385.086320	408.485949	154.922768	-363.646696	-64.685942	851.147710	-241.764364	21.128291	83.628435	-442.353962	21.262174	84.030484	-44.022986	
252	1.2600	615.942364	1331.059108	-73.661833	656.461631	1313.367099	-418.206392	596.430363	1375.183390	-250.540406	620.915638	1235.650635	-241.284659	539.522475	1091.151025	21.341501	689.465952	910.389551	-58.309474	542.534029	1092.021844	-556.853212	675.149782	909.079429	-453.983482	131.010378	1152.352928	-293.768177	290.790476	1106.621354	-408.586832	252.541895	1160.830762	-128.972251	315.411659	1049.834015	-372.250956	286.277939	1098.639490	-133.679319	154.453844	1190.459100	-234.953866	174.388593	1175.397449	-341.208843	208.357401	1051.706258	-65.734213	226.275163	980.452248	-442.347991	325.723678	984.917054	-55.127203	411.785168	967.020708	-55.728606	474.286750	904.738539	-48.813601	427.525648	988.982285	-80.772209	540.748521	818.334034	-72.385232	530.554685	800.238859	-172.034177	454.025627	762.206273	-49.894239	399.263139	693.946734	-69.687528	317.183091	662.393596	-73.553941	418.743216	676.775677	-99.597220	238.430277	599.961947	-80.448209	246.283104	613.484659	-157.208619	150.978221	614.818668	-119.374469	369.842588	462.982662	-131.968597	295.157870	493.859512	-64.520634	259.008702	851.221350	-437.560829	303.096112	779.645697	-424.652816	337.114298	789.283852	-411.744064	304.444217	689.514620	-413.899892	318.230664	597.374925	-396.388117	323.047455	581.898582	-300.178022	217.540321	244.566795	-409.534058	238.954469	249.806954	-343.157321	148.584837	216.267703	-373.162073	309.024041	146.362291	-431.963640	282.488642	502.713013	-423.236380	285.063218	416.235169	-416.168099	242.664290	338.080203	-415.381721	310.262179	412.234226	-385.233380	403.039275	152.467064	-363.634053	-64.687706	851.165390	-241.747195	21.128979	83.663106	-442.346477	21.262784	84.040284	-44.018314	
253	1.2650	615.737666	1332.981320	-70.684213	657.877369	1316.104576	-417.070878	597.353749	1378.550889	-248.840465	622.739113	1239.544346	-239.598438	540.043359	1091.744195	21.557002	689.292337	910.195230	-59.088641	545.196854	1093.619731	-555.034599	676.085732	908.829820	-453.820967	133.527558	1153.000939	-294.502869	295.191586	1107.203078	-408.106171	254.561936	1161.970371	-128.937984	318.823018	1050.616599	-371.393411	288.440046	1099.744635	-133.509619	156.477592	1191.422756	-235.700128	177.037602	1176.364511	-341.960167	210.551803	1052.257997	-66.299406	229.214993	980.916671	-442.446953	328.332329	986.312321	-55.582116	414.515055	968.748986	-56.106069	477.281814	906.668855	-49.211707	430.097986	990.896241	-80.993701	544.151026	820.769307	-72.726700	534.223138	802.520678	-172.532840	457.773582	764.211928	-50.460534	403.334259	695.631412	-70.402857	321.555021	663.551512	-73.724030	422.758655	678.191418	-100.217858	243.204385	600.348109	-80.654115	250.989577	613.638462	-157.337934	155.647650	614.500184	-119.299273	375.970281	464.770484	-132.141304	301.041876	494.958574	-64.620910	259.975896	851.909029	-437.689040	303.174240	779.763373	-424.779495	337.292438	788.993136	-411.822375	303.410985	689.638278	-414.076954	316.095390	597.497498	-396.457825	320.624037	581.938509	-300.250148	213.327918	245.233227	-409.481557	234.971911	250.372964	-343.049559	144.241922	218.046135	-373.134503	303.542889	145.724271	-431.908579	279.838434	502.932193	-423.222659	281.868598	416.550564	-416.131784	238.982031	338.658032	-415.378176	307.070226	412.231306	-385.280250	397.559561	150.329802	-363.403778	-64.681477	851.199066	-241.753453	21.152391	83.704016	-442.352240	21.270770	84.060644	-44.009985	
254	1.2700	615.476875	1334.869235	-67.705143	659.119025	1318.839169	-415.916432	598.240475	1381.872600	-246.942677	624.567565	1243.287193	-237.855469	540.588319	1092.238771	21.838919	689.260014	909.606659	-59.979195	547.709848	1095.226164	-553.114337	677.177925	908.841352	-453.645422	136.188164	1153.987820	-295.286828	299.493651	1107.963813	-407.653061	256.534578	1163.207461	-128.773879	322.149398	1051.332492	-370.501844	290.468669	1100.952248	-133.217782	158.520244	1192.194234	-236.260232	179.691354	1177.437467	-342.737745	212.839864	1052.887902	-66.594571	232.000879	981.567539	-442.096490	331.051516	987.614658	-56.101777	417.219990	970.326010	-56.562870	480.232680	908.576625	-49.771333	432.770962	992.457226	-81.318441	547.455497	822.997879	-73.285951	537.624187	804.610436	-173.252185	461.469223	765.956569	-51.012721	407.855766	696.835712	-70.295241	325.885037	664.508826	-73.809001	426.859616	679.553623	-100.740980	247.908132	600.447747	-80.794235	254.985364	613.673879	-157.356378	160.095975	613.629235	-119.365940	382.217755	466.490710	-132.073675	306.901796	495.879675	-64.587502	261.136577	852.735474	-437.829267	303.496841	780.127298	-424.841426	337.761618	788.992100	-411.771170	302.695783	689.972207	-414.150601	314.281458	597.716666	-396.512404	317.692117	581.962878	-301.307209	209.347835	246.239230	-409.529488	231.353779	251.091849	-343.094723	140.027459	220.447704	-373.145967	297.958468	145.201032	-431.737270	277.354170	503.301626	-422.886002	278.872969	416.980131	-416.130982	235.556219	339.393111	-415.389955	304.117587	412.681647	-385.321164	392.066525	148.059553	-363.258273	-64.714490	851.227124	-241.811994	21.171587	83.673270	-442.323317	21.311784	84.015459	-43.992342	
255	1.2750	615.280383	1336.648981	-64.782649	660.144279	1321.593891	-414.817656	599.093737	1385.030207	-245.011400	626.274260	1247.016208	-236.127956	541.163337	1092.561626	22.185022	689.151204	909.447561	-60.730845	550.087919	1096.634326	-551.003113	678.393266	908.826798	-453.428522	138.830225	1155.284539	-295.908700	303.495551	1108.943046	-407.152534	258.588318	1164.446005	-128.664736	325.233404	1052.328437	-369.600760	292.400497	1102.033876	-132.878251	160.645250	1193.405854	-236.889089	182.275946	1178.621997	-343.261139	215.203247	1053.580036	-66.900262	234.806574	982.512792	-441.994683	333.740320	988.899561	-56.763972	419.953335	971.806785	-57.018402	483.189537	910.128836	-50.470139	435.514940	993.989784	-81.738306	550.633033	825.022952	-74.000768	540.885820	806.361156	-174.068242	464.946338	767.483487	-51.822797	411.766926	697.976050	-70.794334	330.076226	665.172986	-73.946087	432.060042	680.347849	-100.624402	252.494348	600.237920	-80.916105	260.061837	613.495315	-157.675395	164.352467	612.526395	-119.338655	388.353287	468.087329	-132.237922	312.795254	496.446584	-64.670144	262.526695	853.778133	-437.983051	304.019847	780.800405	-424.836954	338.306074	789.224233	-411.637511	302.220136	690.671284	-414.209594	312.767760	598.121754	-396.513538	316.231035	582.436112	-301.016915	205.601931	247.545199	-409.586872	227.830371	252.057718	-342.865866	135.952580	223.168219	-373.002184	292.469694	144.911010	-431.698523	274.950135	504.224853	-423.211652	276.045353	417.775546	-416.217951	232.289547	340.388999	-415.386474	301.323478	413.248679	-385.466618	386.612276	145.868168	-363.173424	-64.772861	851.219789	-241.588388	21.170081	83.679948	-442.287506	21.328379	84.048259	-43.976063	
256	1.2800	615.147221	1338.253386	-61.930678	661.094497	1324.220312	-413.670422	599.879545	1388.009796	-243.299256	627.992962	1250.552555	-234.366875	541.691472	1092.775875	22.546031	689.173729	909.286792	-61.339598	552.164295	1098.084962	-548.894708	679.472383	908.839220	-452.984735	141.613324	1156.577905	-296.503881	307.262760	1110.678192	-406.629990	260.598060	1165.731920	-128.451207	327.920055	1053.604155	-367.944842	294.337381	1102.988844	-132.518834	162.727457	1194.627740	-237.310213	184.898435	1180.006921	-343.803369	217.598919	1054.366815	-67.087939	237.586195	983.872219	-441.871578	336.571445	990.099339	-57.342767	422.763700	973.039905	-57.640585	486.097483	911.551260	-51.306245	438.422558	995.391225	-82.467879	553.670652	826.754416	-74.905027	543.929991	807.969471	-175.014942	468.310436	768.734455	-52.611780	415.722250	699.066843	-71.363156	334.090971	665.495621	-74.400700	435.988836	681.251721	-101.053841	256.972040	599.761755	-81.029782	264.420948	613.050176	-157.780601	168.548365	611.015827	-119.520044	394.490789	469.547157	-132.255140	318.500585	496.920181	-64.659868	264.076766	855.018027	-438.099022	304.809811	781.575866	-424.756878	339.066220	789.742212	-411.369909	302.095257	691.515866	-414.269584	311.538534	598.724238	-396.612476	315.223141	583.267952	-300.792073	201.845805	249.033623	-409.584399	224.245211	253.380711	-342.608084	132.021005	226.132475	-373.176665	287.081167	144.909874	-431.593710	272.871324	505.162336	-423.294555	273.389507	418.781621	-416.280530	229.133912	341.617971	-415.412429	298.722573	413.963116	-385.546746	381.116924	144.177499	-363.038228	-64.768138	851.187492	-241.440297	21.165732	83.696020	-442.295177	21.340570	84.039627	-43.955429	
